<svg xmlns="http://www.w3.org/2000/svg" xmlns:xlink="http://www.w3.org/1999/xlink" viewBox="0 0 167.82 171.81"><defs><style>.cls-1{fill:url(#radial-gradient);}.cls-2{fill:url(#radial-gradient-2);}.cls-3{fill:url(#radial-gradient-4);}.cls-4{fill:url(#radial-gradient-5);}.cls-5{fill:url(#radial-gradient-7);}.cls-6{fill:url(#radial-gradient-8);}.cls-7{fill:url(#radial-gradient-9);}.cls-8{fill:url(#radial-gradient-10);}.cls-9{fill:url(#radial-gradient-11);}.cls-10{fill:url(#radial-gradient-12);}.cls-11{fill:url(#radial-gradient-14);}.cls-12{fill:url(#radial-gradient-15);}.cls-13{fill:url(#radial-gradient-17);}.cls-14{fill:url(#radial-gradient-18);}.cls-15{fill:url(#radial-gradient-19);}.cls-16{fill:url(#radial-gradient-20);}.cls-17{fill:none;}.cls-18{isolation:isolate;}.cls-19{fill:url(#linear-gradient);}.cls-20{fill:#c2c2c2;opacity:0.65;}.cls-20,.cls-50{mix-blend-mode:screen;}.cls-21{fill:#212121;}.cls-22{fill:#00e5f6;}.cls-23{fill:#f9f9f9;}.cls-24{fill:#adadad;}.cls-25{fill:#535353;}.cls-26{fill:#dcdcdc;}.cls-27{fill:url(#linear-gradient-2);}.cls-28{fill:url(#linear-gradient-3);}.cls-29{fill:#ffc3b1;}.cls-30{fill:#f09982;}.cls-31{fill:url(#linear-gradient-4);}.cls-32{fill:#d67e6b;}.cls-33{clip-path:url(#clip-path);}.cls-34,.cls-46{fill:#fff;}.cls-35{fill:url(#linear-gradient-5);}.cls-36{fill:url(#linear-gradient-6);}.cls-37{clip-path:url(#clip-path-2);}.cls-38{fill:url(#linear-gradient-7);}.cls-39{fill:url(#linear-gradient-8);}.cls-40{fill:url(#linear-gradient-9);}.cls-41{fill:url(#linear-gradient-10);}.cls-42{fill:url(#linear-gradient-11);}.cls-43{fill:url(#linear-gradient-12);}.cls-44{fill:#e45b54;}.cls-45{opacity:0.75;}.cls-46{stroke:#8e8e8e;stroke-miterlimit:10;}.cls-47{fill:#d9d9d6;}.cls-48{mask:url(#mask);}.cls-49{fill:#afafaf;}.cls-51{fill:url(#radial-gradient-21);}.cls-52{fill:#100142;opacity:0.32;mix-blend-mode:multiply;}.cls-53{fill:#ffdcd1;}.cls-54{fill:#ffd5c8;}.cls-55{fill:url(#linear-gradient-13);}</style><radialGradient id="radial-gradient" cx="59.62" cy="127.63" r="24.74" gradientTransform="translate(0.28 -5.29) scale(1.03)" gradientUnits="userSpaceOnUse"><stop offset="0" stop-color="#fff"/><stop offset="1" stop-color="#fff"/></radialGradient><radialGradient id="radial-gradient-2" cx="59.62" cy="127.63" r="24.74" xlink:href="#radial-gradient"/><radialGradient id="radial-gradient-4" cx="59.62" cy="127.63" r="24.74" xlink:href="#radial-gradient"/><radialGradient id="radial-gradient-5" cx="59.62" cy="127.63" r="24.74" xlink:href="#radial-gradient"/><radialGradient id="radial-gradient-7" cx="59.62" cy="127.63" r="24.74" xlink:href="#radial-gradient"/><radialGradient id="radial-gradient-8" cx="59.62" cy="127.63" r="24.74" xlink:href="#radial-gradient"/><radialGradient id="radial-gradient-9" cx="59.62" cy="127.63" r="24.74" xlink:href="#radial-gradient"/><radialGradient id="radial-gradient-10" cx="59.62" cy="127.63" r="24.74" xlink:href="#radial-gradient"/><radialGradient id="radial-gradient-11" cx="59.62" cy="127.63" r="24.74" gradientTransform="translate(0.28 -5.29) scale(1.03)" gradientUnits="userSpaceOnUse"><stop offset="0" stop-color="#fff"/><stop offset="1"/></radialGradient><radialGradient id="radial-gradient-12" cx="59.62" cy="127.63" r="24.74" xlink:href="#radial-gradient-11"/><radialGradient id="radial-gradient-14" cx="59.62" cy="127.63" r="24.74" xlink:href="#radial-gradient-11"/><radialGradient id="radial-gradient-15" cx="59.62" cy="127.63" r="24.74" xlink:href="#radial-gradient-11"/><radialGradient id="radial-gradient-17" cx="59.62" cy="127.63" r="24.74" xlink:href="#radial-gradient-11"/><radialGradient id="radial-gradient-18" cx="59.62" cy="127.63" r="24.74" xlink:href="#radial-gradient-11"/><radialGradient id="radial-gradient-19" cx="59.62" cy="127.63" r="24.74" xlink:href="#radial-gradient-11"/><radialGradient id="radial-gradient-20" cx="59.62" cy="127.63" r="24.74" xlink:href="#radial-gradient-11"/><linearGradient id="linear-gradient" x1="16.41" y1="58.76" x2="67.58" y2="58.76" gradientUnits="userSpaceOnUse"><stop offset="0.01" stop-color="#100b21"/><stop offset="1" stop-color="#3b3648"/></linearGradient><linearGradient id="linear-gradient-2" x1="34.51" y1="46.28" x2="41.85" y2="46.28" xlink:href="#linear-gradient"/><linearGradient id="linear-gradient-3" x1="42.06" y1="46.28" x2="49.4" y2="46.28" xlink:href="#linear-gradient"/><linearGradient id="linear-gradient-4" x1="33.93" y1="42.29" x2="48.9" y2="42.29" xlink:href="#linear-gradient"/><clipPath id="clip-path"><path class="cls-17" d="M43.36,50.45a1.71,1.71,0,0,1,1.54-1.12,2.58,2.58,0,0,1,1.77.63s-.27.75-.82.88a3.31,3.31,0,0,1-1.68,0A2.82,2.82,0,0,1,43.36,50.45Z"/></clipPath><linearGradient id="linear-gradient-5" x1="44.09" y1="50.05" x2="45.95" y2="50.05" xlink:href="#linear-gradient"/><linearGradient id="linear-gradient-6" x1="43.36" y1="49.92" x2="46.67" y2="49.92" xlink:href="#linear-gradient"/><clipPath id="clip-path-2"><path class="cls-17" d="M40.55,50.45A1.71,1.71,0,0,0,39,49.33a2.62,2.62,0,0,0-1.77.63s.27.75.83.88a3.27,3.27,0,0,0,1.67,0A2.7,2.7,0,0,0,40.55,50.45Z"/></clipPath><linearGradient id="linear-gradient-7" x1="37.96" y1="50.05" x2="39.83" y2="50.05" xlink:href="#linear-gradient"/><linearGradient id="linear-gradient-8" x1="37.24" y1="49.92" x2="40.55" y2="49.92" xlink:href="#linear-gradient"/><linearGradient id="linear-gradient-9" x1="43.36" y1="49.86" x2="46.67" y2="49.86" xlink:href="#linear-gradient"/><linearGradient id="linear-gradient-10" x1="37.24" y1="49.86" x2="40.55" y2="49.86" xlink:href="#linear-gradient"/><linearGradient id="linear-gradient-11" x1="43.43" y1="47.43" x2="47.71" y2="47.43" xlink:href="#linear-gradient"/><linearGradient id="linear-gradient-12" x1="36.2" y1="47.43" x2="40.48" y2="47.43" xlink:href="#linear-gradient"/><mask id="mask" x="42.31" y="98.86" width="38.33" height="50.21" maskUnits="userSpaceOnUse"><path class="cls-1" d="M47.48,110.36a.75.75,0,0,1-.38-.1.8.8,0,0,1-.31-1.08c2.38-4.3,7.07-9.22,13.09-10.15a14.91,14.91,0,0,1,10.81,2.53.8.8,0,1,1-.93,1.29,13.54,13.54,0,0,0-9.64-2.26c-5.45.85-9.74,5.39-11.94,9.36A.81.81,0,0,1,47.48,110.36Z"/><path class="cls-2" d="M61.45,149.06a17.1,17.1,0,0,1-2.92-.25A18.89,18.89,0,0,1,44.29,137.6c-3-7.18-2.58-16.66,1.09-26a.79.79,0,1,1,1.48.58c-3.53,9-3.93,18-1.1,24.81a17.31,17.31,0,0,0,13,10.26,14.67,14.67,0,0,0,12.51-3.63c5-4.42,8-12.14,7.73-19.67-.63-14.87-7.19-19-7.25-19.06a.8.8,0,0,1,.81-1.37c.3.18,7.36,4.54,8,20.36.33,8-2.91,16.21-8.28,20.93A16.22,16.22,0,0,1,61.45,149.06Z"/><path class="cls-2" d="M50.58,141.21A.79.79,0,0,1,50,141c-5.44-6-4.83-14.77-3.89-20.86C47.46,111.3,53.65,102,62.43,102h0c8.42,0,12.47,8.89,12.64,9.27a.79.79,0,0,1-.41,1,.78.78,0,0,1-1-.4c0-.08-3.81-8.32-11.19-8.32-7.61,0-13.48,8.53-14.76,16.78-.89,5.77-1.49,14.06,3.49,19.55a.79.79,0,0,1,0,1.12A.77.77,0,0,1,50.58,141.21Z"/><path class="cls-3" d="M75.29,135.21a.86.86,0,0,1-.27-.05.79.79,0,0,1-.47-1,28.87,28.87,0,0,0,0-19.76.8.8,0,0,1,1.46-.64,30,30,0,0,1,0,21A.8.8,0,0,1,75.29,135.21Z"/><path class="cls-4" d="M60.84,146.26A12.52,12.52,0,0,1,52,142.7.79.79,0,1,1,53,141.55c3.11,2.9,6.73,3.76,11.4,2.69,6.43-1.47,8.83-7.47,8.86-7.53a.79.79,0,0,1,1-.46.81.81,0,0,1,.46,1,14.77,14.77,0,0,1-10,8.51A18.07,18.07,0,0,1,60.84,146.26Z"/><path class="cls-2" d="M61,143.24A10.32,10.32,0,0,1,56.16,142c-5.42-2.85-8.39-10.05-7.41-17.91a.79.79,0,0,1,1.57.2c-1,8.32,2.56,14.18,6.57,16.3,3.56,1.87,7.6,1.16,11.1-1.94,5.88-5.22,6.76-15.76,4.22-22.94-1-3-3.62-8-9.06-8.22-9.39-.43-12.51,14.09-12.54,14.23a.8.8,0,1,1-1.56-.32c.14-.65,3.44-16,14.17-15.49,4.65.21,8.48,3.59,10.49,9.27,2.71,7.67,1.71,19-4.67,24.65A12.2,12.2,0,0,1,61,143.24Z"/><path class="cls-5" d="M61.25,140.49a.79.79,0,0,1,0-1.58c.43,0,10-.81,9.55-14.38-.17-5.58-1.52-9.5-4-11.63a6.79,6.79,0,0,0-5.14-1.62c-5.11.63-7.6,7.71-8.27,11.79-.48,3-1.48,12.82,5.9,15.44a.8.8,0,1,1-.53,1.5c-8.54-3-7.46-13.93-6.93-17.19.91-5.61,4-12.42,9.63-13.12a8.4,8.4,0,0,1,6.37,2c2.84,2.43,4.37,6.73,4.56,12.79.46,15.16-10.93,16-11,16Z"/><path class="cls-6" d="M61,137.34a.8.8,0,0,1,0-1.59c.27,0,6.63-.47,6.63-9.59,0-4.94-1.11-8.64-3.13-10.4a4,4,0,0,0-3.24-1c-1.39.18-4.84,3.68-5.36,8.75a.79.79,0,0,1-1.58-.16c.57-5.64,4.43-9.86,6.72-10.17a5.67,5.67,0,0,1,4.5,1.42c1.68,1.47,3.68,4.67,3.68,11.6,0,10.67-8.06,11.18-8.14,11.18Z"/><path class="cls-7" d="M58.66,136.71a.72.72,0,0,1-.35-.08c-5.13-2.55-4.25-10.24-4.21-10.56a.8.8,0,0,1,1.58.19c0,.07-.78,6.9,3.33,9a.78.78,0,0,1,.36,1.06A.79.79,0,0,1,58.66,136.71Z"/><path class="cls-8" d="M62.66,134.37A.79.79,0,0,1,62,134a.8.8,0,0,1,.22-1.1c1.63-1.07,2.44-3.72,2.66-5.84.29-2.76-.29-6.73-1.73-8.34a1.71,1.71,0,0,0-1.28-.64c-1.53,0-3.35,4.09-3.79,6.74-.5,3.09.32,6.27,1.39,7a.73.73,0,0,0,.86,0c.92-.47,1.6-2,1.83-4.23a11.47,11.47,0,0,0-.58-5.48c-1.44,1.8-1.27,5.9-.61,7.33a.79.79,0,1,1-1.44.66c-.84-1.82-1.12-6.8.95-9.14a1.4,1.4,0,0,1,1.53-.51c1.29.44,1.66,2.92,1.76,4.37.23,3.13-.34,7.21-2.72,8.42a2.31,2.31,0,0,1-2.52-.18c-1.91-1.4-2.52-5.46-2-8.58.26-1.61,2-8.08,5.35-8.08a3.28,3.28,0,0,1,2.46,1.17c2,2.27,2.39,7.07,2.13,9.56-.16,1.55-.81,5.32-3.36,7A.82.82,0,0,1,62.66,134.37Z"/></mask><radialGradient id="radial-gradient-21" cx="116.55" cy="58.15" r="15.44" gradientTransform="translate(0.28 -5.29) scale(1.03)" gradientUnits="userSpaceOnUse"><stop offset="0.42" stop-color="#fff"/><stop offset="0.47" stop-color="#f7f7f7"/><stop offset="0.54" stop-color="#e1e1e1"/><stop offset="0.64" stop-color="#bcbcbc"/><stop offset="0.75" stop-color="#8a8a8a"/><stop offset="0.88" stop-color="#494949"/><stop offset="1"/></radialGradient><linearGradient id="linear-gradient-13" x1="173.69" y1="183.34" x2="173.69" y2="152.15" gradientTransform="translate(293.34 -19.99) rotate(90)" gradientUnits="userSpaceOnUse"><stop offset="0.01" stop-color="#100b21"/><stop offset="1" stop-color="#adadad"/></linearGradient></defs><g class="cls-18"><g id="Layer_2" data-name="Layer 2"><g id="Layer_1-2" data-name="Layer 1"><rect class="cls-19" x="16.41" y="15.81" width="51.17" height="85.89" rx="3.76"/><path class="cls-20" d="M26.77,42c8.63-5.09,17.31-10.23,26.29-14.69,4.91-2.44,10-4.74,14.51-7.83a3.76,3.76,0,0,0-3.75-3.69H20.16a3.76,3.76,0,0,0-3.75,3.76V48.25Q21.57,45.1,26.77,42Z"/><path class="cls-20" d="M60.82,36.24c-6.75,3.33-13.35,7-19.88,10.76a9,9,0,0,1,2.64,6.07c2.81-1.3,5.6-2.62,8.36-4,5.16-2.56,10.53-5.25,15.64-8.31v-8C65.35,34,63.08,35.12,60.82,36.24Z"/><path class="cls-20" d="M22.56,84.12c15.26-6.67,31-13.23,45-22.35V53.9C64.3,55.68,61,57.36,57.72,59c-11,5.41-22.35,10.17-33.58,15.13l-7.73,3.44V86.8Z"/><rect class="cls-21" x="19.99" y="21.9" width="44.01" height="68.23"/><rect class="cls-22" x="21.06" y="23.21" width="41.87" height="65.61"/><rect class="cls-23" x="21.06" y="23.21" width="41.87" height="65.61"/><rect class="cls-24" x="22.51" y="24.48" width="38.96" height="63.07"/><rect class="cls-25" x="39.15" y="91.75" width="5.68" height="5.68"/><rect class="cls-26" x="39.82" y="92.41" width="4.35" height="4.35"/><rect class="cls-21" x="38.55" y="18.36" width="6.89" height="2.06"/><path class="cls-27" d="M41.85,39c-1.44-.69-3.53,0-4.84,1.11a14.07,14.07,0,0,0-2.25,2.6c-.88,1.42.81,8.9,1.16,9.27a5.69,5.69,0,0,0,2.51,1.79h0L41.85,51Z"/><path class="cls-28" d="M42.06,39c1.44-.69,3.53,0,4.84,1.11a13.71,13.71,0,0,1,2.25,2.6c.88,1.42-.8,8.9-1.16,9.27a5.69,5.69,0,0,1-2.51,1.79h0L42.06,51Z"/><path class="cls-29" d="M36.37,50.51s-.69-.66-1.12-.33a.8.8,0,0,0-.19.94c.55,1.38.69,2.41,1.21,2.63s1-.38,1-.38Z"/><path class="cls-30" d="M36.73,52.75c-.08-2-1.28-2-1.28-2a2.2,2.2,0,0,1,.45,1.12,5.49,5.49,0,0,1,.07.72C35.87,53.46,36.76,53.52,36.73,52.75Z"/><path class="cls-29" d="M47.54,50.51s.69-.66,1.12-.33a.8.8,0,0,1,.19.94c-.54,1.38-.69,2.41-1.2,2.63s-1-.38-1-.38Z"/><path class="cls-30" d="M47.19,52.75c.08-2,1.27-2,1.27-2A2.2,2.2,0,0,0,48,51.85a4.2,4.2,0,0,0-.06.72C48.05,53.46,47.16,53.52,47.19,52.75Z"/><path class="cls-29" d="M42,41.36A9.7,9.7,0,0,0,35.47,43s.27,9.12,1.16,11.36,3,5.05,5.33,5.05,4.42-2.81,5.32-5.05S48.44,43,48.44,43A9.67,9.67,0,0,0,42,41.36Z"/><path class="cls-31" d="M48.76,43s.83-3.68-4.24-5c-5.85-1.55-10.89.76-10.58,7.26,0,0,3.71,1,6.33-.19,3.76-1.67,3.38-3.15,6.34-2.77.31,0-.54,3.17,2.2,4.76C49.18,47.26,48.32,43.09,48.76,43Z"/><path class="cls-32" d="M42.73,53.55a.43.43,0,0,1-.17.35,2.29,2.29,0,0,1-1.2,0,.42.42,0,0,1-.18-.35c-.22,0-.34.3-.16.59s.46.2.7.19h.47c.24,0,.6,0,.71-.19S43,53.57,42.73,53.55Z"/><g class="cls-33"><path class="cls-34" d="M43.36,50.45a1.71,1.71,0,0,1,1.54-1.12,2.58,2.58,0,0,1,1.77.63s-.27.75-.82.88a3.31,3.31,0,0,1-1.68,0A2.82,2.82,0,0,1,43.36,50.45Z"/><circle class="cls-35" cx="45.02" cy="50.05" r="0.93"/><path class="cls-36" d="M44.9,49.77a3,3,0,0,1,1.68.4,1.78,1.78,0,0,0,.09-.21,2.58,2.58,0,0,0-1.77-.63,1.71,1.71,0,0,0-1.54,1.12l.11.07A1.54,1.54,0,0,1,44.9,49.77Z"/><path class="cls-32" d="M45.85,50.65a3.33,3.33,0,0,1-1.68,0,2.72,2.72,0,0,1-.74-.38.73.73,0,0,0-.07.14,2.82,2.82,0,0,0,.81.42,3.31,3.31,0,0,0,1.68,0c.55-.13.82-.88.82-.88l-.06-.05A1.29,1.29,0,0,1,45.85,50.65Z"/></g><g class="cls-37"><path class="cls-34" d="M40.55,50.45A1.71,1.71,0,0,0,39,49.33a2.62,2.62,0,0,0-1.77.63s.27.75.83.88a3.27,3.27,0,0,0,1.67,0A2.7,2.7,0,0,0,40.55,50.45Z"/><path class="cls-38" d="M38,50.05a.94.94,0,1,0,.94-.94A.94.94,0,0,0,38,50.05Z"/><path class="cls-39" d="M39,49.77a2.88,2.88,0,0,0-1.67.4,1.25,1.25,0,0,1-.1-.21A2.62,2.62,0,0,1,39,49.33a1.71,1.71,0,0,1,1.54,1.12l-.1.07A1.54,1.54,0,0,0,39,49.77Z"/><path class="cls-32" d="M38.07,50.65a3.29,3.29,0,0,0,1.67,0,2.89,2.89,0,0,0,.75-.38,1.19,1.19,0,0,1,.06.14,2.7,2.7,0,0,1-.81.42,3.27,3.27,0,0,1-1.67,0c-.56-.13-.83-.88-.83-.88l.06-.05A1.31,1.31,0,0,0,38.07,50.65Z"/></g><path class="cls-40" d="M44.9,49.77a3,3,0,0,1,1.68.4,1.78,1.78,0,0,0,.09-.21,2.38,2.38,0,0,0-1.77-.76,1.77,1.77,0,0,0-1.54,1.25l.11.07A1.54,1.54,0,0,1,44.9,49.77Z"/><path class="cls-41" d="M39,49.77a2.88,2.88,0,0,0-1.67.4,1.25,1.25,0,0,1-.1-.21A2.41,2.41,0,0,1,39,49.2a1.77,1.77,0,0,1,1.54,1.25l-.1.07A1.54,1.54,0,0,0,39,49.77Z"/><path class="cls-42" d="M47.67,47.46s-.43-.55-2.1-.67c-2.07-.14-2.14.18-2.14.81s1.66.44,2.41.49S47.94,47.86,47.67,47.46Z"/><path class="cls-43" d="M36.24,47.46s.43-.55,2.1-.67c2.08-.14,2.14.18,2.14.81s-1.66.44-2.41.49S36,47.86,36.24,47.46Z"/><path class="cls-44" d="M42,55.67a5.6,5.6,0,0,1-2.07-.45,1.62,1.62,0,0,0,.65.94,2.93,2.93,0,0,0,2.84,0,1.72,1.72,0,0,0,.65-.94A5.6,5.6,0,0,1,42,55.67Z"/><g class="cls-45"><path class="cls-34" d="M42.36,45.46a.41.41,0,1,1-.4-.4A.4.4,0,0,1,42.36,45.46Z"/><path class="cls-34" d="M42.36,47.7a.41.41,0,1,1-.81,0,.41.41,0,1,1,.81,0Z"/><circle class="cls-34" cx="41.96" cy="49.93" r="0.41"/><path class="cls-34" d="M42.36,52.17a.41.41,0,1,1-.81,0,.41.41,0,1,1,.81,0Z"/><circle class="cls-34" cx="41.96" cy="54.41" r="0.41"/><path class="cls-34" d="M42.36,56.47a.41.41,0,1,1-.81,0,.41.41,0,1,1,.81,0Z"/><path class="cls-34" d="M42.36,58.62a.41.41,0,1,1-.4-.4A.4.4,0,0,1,42.36,58.62Z"/><path class="cls-34" d="M45.77,56.06a.41.41,0,0,1-.41.41.41.41,0,1,1,0-.81A.4.4,0,0,1,45.77,56.06Z"/><path class="cls-34" d="M44.16,55.35a.41.41,0,1,1-.81,0,.41.41,0,0,1,.81,0Z"/><path class="cls-34" d="M44.38,52.25a.41.41,0,1,1-.4-.4A.4.4,0,0,1,44.38,52.25Z"/><path class="cls-34" d="M46.27,51.67a.41.41,0,1,1-.82,0,.41.41,0,1,1,.82,0Z"/><path class="cls-34" d="M47.79,50.86a.41.41,0,0,1-.41.41.41.41,0,1,1,0-.81A.4.4,0,0,1,47.79,50.86Z"/><path class="cls-34" d="M45.7,47.28a.41.41,0,0,1-.81,0,.41.41,0,1,1,.81,0Z"/><path class="cls-34" d="M46.88,46.26a.41.41,0,1,1-.41-.41A.4.4,0,0,1,46.88,46.26Z"/><circle class="cls-34" cx="46.53" cy="49.93" r="0.41"/><circle class="cls-34" cx="48.03" cy="47.45" r="0.41"/><circle class="cls-34" cx="46.53" cy="53.83" r="0.41"/><path class="cls-34" d="M41.9,58.73V45.4H42l4.59.74,1.53,1.19-.66,3.53-.85,3-1.19,2.26ZM42,45.53v13L45.32,56l1.16-2.22.85-3L48,47.39l-1.46-1.14Z"/><polygon class="cls-34" points="41.96 47.75 41.95 47.65 45.12 47.31 41.93 45.51 41.98 45.41 45.47 47.38 41.96 47.75"/><polygon class="cls-34" points="43.99 52.31 41.96 52.31 41.96 52.2 43.97 52.2 45.84 51.62 47.42 50.82 47.46 50.91 45.88 51.72 43.99 52.31"/><polygon class="cls-34" points="43.75 55.41 43.73 55.4 41.93 54.45 41.98 54.36 43.75 55.29 46.47 53.88 45.81 51.69 45.91 51.66 46.59 53.93 46.55 53.95 43.75 55.41"/><polygon class="cls-34" points="41.98 56.47 41.93 56.38 43.72 55.27 45.32 56.16 45.27 56.25 43.72 55.4 41.98 56.47"/><rect class="cls-34" x="42.24" y="53.79" width="3.2" height="0.11" transform="translate(-13.49 93.02) rotate(-85.19)"/><polygon class="cls-34" points="43.8 55.38 43.71 55.33 45.75 51.66 45.84 51.72 43.8 55.38"/><polygon class="cls-34" points="42 52.21 41.92 52.13 43.44 50.4 45.17 47.38 45.27 47.43 43.52 50.46 42 52.21"/><rect class="cls-34" x="46.94" y="49.74" width="0.11" height="1.26" transform="translate(-21.12 40.08) rotate(-38.4)"/><polygon class="cls-34" points="45.84 51.83 45.74 51.78 46.54 49.94 45.21 47.22 45.3 47.22 48.02 47.4 48.01 47.51 45.38 47.34 46.66 49.93 45.84 51.83"/><polygon class="cls-34" points="41.99 49.98 41.92 49.89 45.26 47.31 46.44 46.22 46.51 46.3 45.33 47.39 41.99 49.98"/><path class="cls-34" d="M41.55,45.46a.41.41,0,1,0,.4-.4A.4.4,0,0,0,41.55,45.46Z"/><path class="cls-34" d="M41.55,47.7a.41.41,0,1,0,.81,0,.41.41,0,1,0-.81,0Z"/><path class="cls-34" d="M41.55,49.93a.41.41,0,1,0,.4-.4A.4.4,0,0,0,41.55,49.93Z"/><path class="cls-34" d="M41.55,52.17a.41.41,0,1,0,.81,0,.41.41,0,1,0-.81,0Z"/><path class="cls-34" d="M41.55,54.41a.41.41,0,0,0,.81,0,.41.41,0,1,0-.81,0Z"/><path class="cls-34" d="M41.55,56.47a.41.41,0,1,0,.81,0,.41.41,0,1,0-.81,0Z"/><path class="cls-34" d="M41.55,58.62a.41.41,0,1,0,.4-.4A.4.4,0,0,0,41.55,58.62Z"/><path class="cls-34" d="M38.14,56.06a.41.41,0,0,0,.41.41.41.41,0,1,0,0-.81A.41.41,0,0,0,38.14,56.06Z"/><path class="cls-34" d="M39.75,55.35a.41.41,0,0,0,.41.41.41.41,0,1,0,0-.81A.4.4,0,0,0,39.75,55.35Z"/><path class="cls-34" d="M39.53,52.25a.41.41,0,1,0,.4-.4A.4.4,0,0,0,39.53,52.25Z"/><path class="cls-34" d="M37.64,51.67a.41.41,0,0,0,.41.41.41.41,0,0,0,.41-.41.41.41,0,0,0-.41-.41A.42.42,0,0,0,37.64,51.67Z"/><path class="cls-34" d="M36.12,50.86a.41.41,0,0,0,.41.41.41.41,0,1,0,0-.81A.41.41,0,0,0,36.12,50.86Z"/><circle class="cls-34" cx="38.62" cy="47.28" r="0.41"/><path class="cls-34" d="M37,46.26a.41.41,0,1,0,.41-.41A.4.4,0,0,0,37,46.26Z"/><path class="cls-34" d="M37,49.93a.41.41,0,0,0,.41.41.41.41,0,1,0,0-.81A.41.41,0,0,0,37,49.93Z"/><path class="cls-34" d="M35.47,47.45a.41.41,0,0,0,.41.41.41.41,0,1,0,0-.81A.4.4,0,0,0,35.47,47.45Z"/><path class="cls-34" d="M37,53.83a.41.41,0,0,0,.41.41.41.41,0,1,0,0-.81A.41.41,0,0,0,37,53.83Z"/><path class="cls-34" d="M38.52,56.11l-1.19-2.26-.85-3-.66-3.53,1.53-1.19,4.6-.74H42V58.73ZM37.4,46.25l-1.46,1.14.64,3.46.85,3L38.59,56l3.31,2.48v-13Z"/><polygon class="cls-34" points="41.95 47.75 41.96 47.65 38.79 47.31 41.98 45.51 41.93 45.41 38.44 47.38 41.95 47.75"/><polygon class="cls-34" points="39.92 52.31 41.95 52.31 41.95 52.2 39.94 52.2 38.07 51.62 36.5 50.82 36.45 50.91 38.03 51.72 39.92 52.31"/><polygon class="cls-34" points="40.16 55.41 40.18 55.4 41.98 54.45 41.93 54.36 40.16 55.29 37.45 53.88 38.1 51.69 38 51.66 37.32 53.93 37.36 53.95 40.16 55.41"/><polygon class="cls-34" points="41.93 56.47 41.98 56.38 40.19 55.27 38.59 56.16 38.64 56.25 40.19 55.4 41.93 56.47"/><rect class="cls-34" x="40.01" y="52.25" width="0.11" height="3.2" transform="translate(-4.38 3.55) rotate(-4.81)"/><polygon class="cls-34" points="40.11 55.38 40.2 55.33 38.16 51.66 38.07 51.72 40.11 55.38"/><polygon class="cls-34" points="41.91 52.21 41.99 52.13 40.47 50.4 38.74 47.38 38.64 47.43 40.39 50.46 41.91 52.21"/><rect class="cls-34" x="36.29" y="50.32" width="1.26" height="0.11" transform="translate(-25.49 48.01) rotate(-51.6)"/><polygon class="cls-34" points="38.07 51.83 38.17 51.78 37.37 49.94 38.71 47.22 38.61 47.22 35.89 47.4 35.9 47.51 38.53 47.34 37.25 49.93 38.07 51.83"/><polygon class="cls-34" points="41.92 49.98 41.99 49.89 38.65 47.31 37.47 46.22 37.4 46.3 38.58 47.39 41.92 49.98"/></g><path class="cls-34" d="M55.16,50A.24.24,0,0,1,55,49.7a.23.23,0,0,1,.26-.22.25.25,0,1,1-.05.49Z"/><path class="cls-34" d="M54.84,51.63a.26.26,0,0,1-.18-.3.26.26,0,0,1,.31-.18.22.22,0,0,1,.17.29A.25.25,0,0,1,54.84,51.63Z"/><path class="cls-34" d="M54.33,53.23a.26.26,0,0,1-.15-.32.25.25,0,0,1,.32-.14.24.24,0,0,1,.14.32A.23.23,0,0,1,54.33,53.23Z"/><path class="cls-34" d="M53.61,54.75a.26.26,0,0,1-.1-.33.25.25,0,0,1,.33-.11.26.26,0,0,1,.11.34A.24.24,0,0,1,53.61,54.75Z"/><path class="cls-34" d="M52.69,56.17a.24.24,0,0,1,0-.34.26.26,0,0,1,.35-.06.23.23,0,0,1,0,.34A.25.25,0,0,1,52.69,56.17Z"/><path class="cls-34" d="M51.61,57.46a.25.25,0,1,1,.35,0A.23.23,0,0,1,51.61,57.46Z"/><path class="cls-34" d="M50.37,58.6a.25.25,0,0,1,0-.34.24.24,0,0,1,.34,0,.26.26,0,0,1,0,.36A.26.26,0,0,1,50.37,58.6Z"/><path class="cls-34" d="M49,59.57a.24.24,0,0,1,.07-.33.26.26,0,0,1,.35.07.25.25,0,1,1-.42.26Z"/><path class="cls-34" d="M47.51,60.37a.25.25,0,0,1,.12-.33.25.25,0,0,1,.33.11.25.25,0,0,1-.45.22Z"/><path class="cls-34" d="M45.93,61a.27.27,0,0,1,.16-.31.25.25,0,0,1,.31.15.25.25,0,1,1-.47.16Z"/><path class="cls-34" d="M44.29,61.34a.24.24,0,0,1,.2-.28.25.25,0,0,1,.29.2.24.24,0,0,1-.2.29A.26.26,0,0,1,44.29,61.34Z"/><path class="cls-34" d="M42.62,61.51a.25.25,0,0,1,.23-.26.25.25,0,0,1,.26.23.25.25,0,0,1-.49,0Z"/><path class="cls-34" d="M40.93,61.48a.27.27,0,0,1,.27-.24.25.25,0,0,1,.23.26.26.26,0,0,1-.27.24A.25.25,0,0,1,40.93,61.48Z"/><path class="cls-34" d="M39.27,61.22a.25.25,0,0,1,.29-.19.23.23,0,0,1,.19.28.24.24,0,1,1-.48-.09Z"/><path class="cls-34" d="M37.65,60.75A.24.24,0,0,1,38,60.6a.26.26,0,0,1,.16.32.25.25,0,0,1-.47-.17Z"/><path class="cls-34" d="M36.1,60.08a.28.28,0,0,1,.34-.12.25.25,0,0,1,.11.33.24.24,0,0,1-.33.12A.24.24,0,0,1,36.1,60.08Z"/><path class="cls-34" d="M34.66,59.21a.26.26,0,0,1,.34-.06.23.23,0,0,1,.07.33.24.24,0,0,1-.34.08A.24.24,0,0,1,34.66,59.21Z"/><path class="cls-34" d="M33.34,58.17a.24.24,0,0,1,.34,0,.26.26,0,0,1,0,.35.23.23,0,0,1-.35,0A.24.24,0,0,1,33.34,58.17Z"/><path class="cls-34" d="M32.15,57a.25.25,0,1,1,.34.37.25.25,0,0,1-.35,0A.24.24,0,0,1,32.15,57Z"/><path class="cls-34" d="M31.14,55.63a.24.24,0,1,1,.28.4.25.25,0,0,1-.35-.06A.23.23,0,0,1,31.14,55.63Z"/><path class="cls-34" d="M30.3,54.16a.25.25,0,0,1,.33.11.26.26,0,0,1-.11.34.23.23,0,0,1-.33-.11A.26.26,0,0,1,30.3,54.16Z"/><path class="cls-34" d="M29.66,52.61a.25.25,0,0,1,.32.15.26.26,0,0,1-.15.31.24.24,0,0,1-.32-.15A.23.23,0,0,1,29.66,52.61Z"/><path class="cls-34" d="M29.22,51a.26.26,0,0,1,.29.19.24.24,0,0,1-.18.29.24.24,0,0,1-.3-.18A.24.24,0,0,1,29.22,51Z"/><path class="cls-34" d="M29,49.31a.25.25,0,0,1,.26.23.25.25,0,0,1-.22.26.24.24,0,0,1-.28-.22A.26.26,0,0,1,29,49.31Z"/><path class="cls-34" d="M29,47.63a.24.24,0,0,1,.23.25.25.25,0,0,1-.26.24.23.23,0,0,1-.23-.26A.24.24,0,0,1,29,47.63Z"/><path class="cls-34" d="M29.18,46a.26.26,0,0,1,.21.29.25.25,0,0,1-.28.2.24.24,0,0,1-.21-.28A.25.25,0,0,1,29.18,46Z"/><path class="cls-34" d="M29.6,44.32a.26.26,0,0,1,.16.31.25.25,0,0,1-.3.17.27.27,0,0,1-.18-.32A.26.26,0,0,1,29.6,44.32Z"/><path class="cls-34" d="M30.23,42.76a.24.24,0,0,1,.11.32.25.25,0,0,1-.33.12.23.23,0,0,1-.12-.32A.25.25,0,0,1,30.23,42.76Z"/><path class="cls-34" d="M31,41.28a.25.25,0,1,1-.34.08A.25.25,0,0,1,31,41.28Z"/><path class="cls-34" d="M32,39.92a.26.26,0,0,1,0,.35.23.23,0,0,1-.34,0,.25.25,0,1,1,.31-.39Z"/><path class="cls-34" d="M33.21,38.71a.25.25,0,0,1,0,.35.27.27,0,0,1-.35,0,.24.24,0,0,1,0-.35A.25.25,0,0,1,33.21,38.71Z"/><path class="cls-34" d="M34.51,37.65a.24.24,0,0,1,0,.34.25.25,0,0,1-.35-.05.24.24,0,0,1,.06-.34A.23.23,0,0,1,34.51,37.65Z"/><path class="cls-34" d="M36,36.76a.25.25,0,0,1-.44.25.26.26,0,0,1,.1-.35A.24.24,0,0,1,36,36.76Z"/><path class="cls-34" d="M37.48,36.07a.24.24,0,0,1-.14.32.27.27,0,0,1-.32-.14.24.24,0,0,1,.14-.32A.25.25,0,0,1,37.48,36.07Z"/><path class="cls-34" d="M39.09,35.58a.25.25,0,0,1-.48.13.25.25,0,0,1,.18-.3A.23.23,0,0,1,39.09,35.58Z"/><path class="cls-34" d="M40.75,35.3a.24.24,0,0,1-.21.27.25.25,0,0,1-.28-.2.26.26,0,0,1,.22-.29A.23.23,0,0,1,40.75,35.3Z"/><path class="cls-34" d="M42.44,35.24a.24.24,0,0,1-.25.23.25.25,0,0,1-.25-.24.25.25,0,0,1,.25-.25A.26.26,0,0,1,42.44,35.24Z"/><path class="cls-34" d="M44.12,35.39a.25.25,0,1,1-.49-.07.23.23,0,0,1,.27-.21A.25.25,0,0,1,44.12,35.39Z"/><path class="cls-34" d="M45.76,35.75a.26.26,0,0,1-.3.18.26.26,0,0,1-.18-.31.24.24,0,0,1,.31-.17A.24.24,0,0,1,45.76,35.75Z"/><path class="cls-34" d="M47.35,36.32a.25.25,0,0,1-.32.13.25.25,0,0,1,.18-.46A.25.25,0,0,1,47.35,36.32Z"/><path class="cls-34" d="M48.84,37.09a.24.24,0,0,1-.33.09.27.27,0,0,1-.09-.34.23.23,0,0,1,.33-.09A.24.24,0,0,1,48.84,37.09Z"/><path class="cls-34" d="M50.23,38.05a.25.25,0,0,1-.34,0,.24.24,0,0,1,.29-.39A.24.24,0,0,1,50.23,38.05Z"/><path class="cls-34" d="M51.49,39.17a.26.26,0,0,1-.35,0,.25.25,0,0,1,0-.35.26.26,0,0,1,.36,0A.25.25,0,0,1,51.49,39.17Z"/><path class="cls-34" d="M52.59,40.45a.25.25,0,0,1-.3-.4.23.23,0,0,1,.34.05A.25.25,0,0,1,52.59,40.45Z"/><path class="cls-34" d="M53.52,41.85a.25.25,0,0,1-.34-.09.24.24,0,0,1,.08-.33.24.24,0,0,1,.34.08A.24.24,0,0,1,53.52,41.85Z"/><path class="cls-34" d="M54.26,43.36a.25.25,0,0,1-.32-.13.24.24,0,0,1,.12-.32.25.25,0,0,1,.33.12A.24.24,0,0,1,54.26,43.36Z"/><path class="cls-34" d="M54.8,45a.25.25,0,0,1-.3-.17.26.26,0,0,1,.17-.31.23.23,0,0,1,.3.17A.25.25,0,0,1,54.8,45Z"/><path class="cls-34" d="M55.13,46.61a.25.25,0,1,1,.21-.28A.25.25,0,0,1,55.13,46.61Z"/><path class="cls-34" d="M55.26,48.29a.25.25,0,1,1,.23-.25A.23.23,0,0,1,55.26,48.29Z"/><path class="cls-34" d="M39.58,63.19a.36.36,0,0,1,.43-.3.36.36,0,0,1,.33.41.38.38,0,1,1-.76-.11Z"/><path class="cls-34" d="M37.7,62.75a.4.4,0,0,1,.48-.26.4.4,0,0,1,.26.48.37.37,0,0,1-.47.26A.39.39,0,0,1,37.7,62.75Z"/><path class="cls-34" d="M35.9,62.08a.38.38,0,0,1,.71.29.39.39,0,0,1-.51.21A.37.37,0,0,1,35.9,62.08Z"/><path class="cls-34" d="M34.19,61.17a.41.41,0,0,1,.53-.13.38.38,0,0,1,.14.52.4.4,0,0,1-.53.15A.38.38,0,0,1,34.19,61.17Z"/><path class="cls-34" d="M32.62,60.05a.39.39,0,0,1,.54-.06.4.4,0,0,1,.07.54.37.37,0,0,1-.54.07A.4.4,0,0,1,32.62,60.05Z"/><path class="cls-34" d="M31.2,58.75a.39.39,0,0,1,.55,0,.38.38,0,0,1,0,.54.39.39,0,0,1-.55-.54Z"/><path class="cls-34" d="M30,57.27a.4.4,0,0,1,.54.07.39.39,0,0,1-.06.54.41.41,0,0,1-.55-.06A.39.39,0,0,1,30,57.27Z"/><path class="cls-34" d="M28.93,55.64a.38.38,0,0,1,.52.15.41.41,0,0,1-.14.53.38.38,0,0,1-.53-.14A.4.4,0,0,1,28.93,55.64Z"/><path class="cls-34" d="M28.1,53.9a.4.4,0,0,1,.5.21.38.38,0,0,1-.7.3A.38.38,0,0,1,28.1,53.9Z"/><path class="cls-34" d="M27.5,52.07a.4.4,0,0,1,.47.27.38.38,0,0,1-.25.47.4.4,0,0,1-.49-.26A.37.37,0,0,1,27.5,52.07Z"/><path class="cls-34" d="M27.16,50.17a.37.37,0,0,1,.42.33.41.41,0,0,1-.32.44.38.38,0,0,1-.44-.33A.39.39,0,0,1,27.16,50.17Z"/><path class="cls-34" d="M27.05,48.25a.39.39,0,0,1,.39.37.4.4,0,0,1-.38.4.37.37,0,0,1-.39-.38A.36.36,0,0,1,27.05,48.25Z"/><path class="cls-34" d="M27.17,46.32a.41.41,0,0,1,.35.43.39.39,0,0,1-.42.34.4.4,0,0,1-.35-.43A.37.37,0,0,1,27.17,46.32Z"/><path class="cls-34" d="M27.56,44.43a.38.38,0,0,1,.27.46.37.37,0,0,1-.45.29.39.39,0,0,1-.3-.47A.4.4,0,0,1,27.56,44.43Z"/><path class="cls-34" d="M28.19,42.61a.38.38,0,0,1,.21.49.41.41,0,0,1-.51.22.36.36,0,0,1-.21-.49A.38.38,0,0,1,28.19,42.61Z"/><path class="cls-34" d="M29,40.87a.42.42,0,0,1,.16.53.39.39,0,0,1-.52.15.38.38,0,0,1-.16-.52A.38.38,0,0,1,29,40.87Z"/><path class="cls-34" d="M30.09,39.26a.39.39,0,0,1,.08.54.37.37,0,0,1-.52.09.38.38,0,0,1-.1-.54A.38.38,0,0,1,30.09,39.26Z"/><path class="cls-34" d="M31.36,37.81a.38.38,0,0,1,0,.54.4.4,0,0,1-.55,0,.37.37,0,0,1,0-.54A.39.39,0,0,1,31.36,37.81Z"/><path class="cls-34" d="M32.79,36.52a.39.39,0,0,1-.59.5.39.39,0,0,1,0-.55A.37.37,0,0,1,32.79,36.52Z"/><path class="cls-34" d="M34.38,35.43a.39.39,0,0,1-.12.52.38.38,0,0,1-.53-.11.4.4,0,0,1,.12-.54A.37.37,0,0,1,34.38,35.43Z"/><path class="cls-34" d="M36.1,34.55a.37.37,0,0,1-.19.5.39.39,0,0,1-.51-.19.35.35,0,0,1,.19-.5A.38.38,0,0,1,36.1,34.55Z"/><path class="cls-34" d="M37.91,33.89a.38.38,0,1,1-.73.24.38.38,0,0,1,.25-.49A.38.38,0,0,1,37.91,33.89Z"/><path class="cls-34" d="M39.8,33.47a.41.41,0,0,1-.31.45.38.38,0,0,1-.45-.3.39.39,0,0,1,.31-.46A.37.37,0,0,1,39.8,33.47Z"/><path class="cls-34" d="M41.72,33.32a.39.39,0,0,1-.37.39.41.41,0,0,1-.4-.37.36.36,0,0,1,.36-.4A.39.39,0,0,1,41.72,33.32Z"/><path class="cls-34" d="M43.65,33.39a.39.39,0,1,1-.77-.07.37.37,0,0,1,.41-.35A.39.39,0,0,1,43.65,33.39Z"/><path class="cls-34" d="M45.55,33.7a.41.41,0,0,1-.46.31.4.4,0,0,1-.3-.45.39.39,0,0,1,.46-.31A.37.37,0,0,1,45.55,33.7Z"/><path class="cls-34" d="M47.39,34.27a.39.39,0,0,1-.73-.25.4.4,0,0,1,.5-.25A.37.37,0,0,1,47.39,34.27Z"/><path class="cls-34" d="M49.15,35.07a.38.38,0,0,1-.51.16.39.39,0,0,1-.17-.52.36.36,0,0,1,.51-.17A.4.4,0,0,1,49.15,35.07Z"/><path class="cls-34" d="M50.79,36.07a.39.39,0,0,1-.53.11.39.39,0,0,1-.11-.53.38.38,0,0,1,.54-.11A.37.37,0,0,1,50.79,36.07Z"/><path class="cls-34" d="M52.29,37.29a.4.4,0,0,1-.54,0,.38.38,0,0,1,0-.54.39.39,0,0,1,.55,0A.38.38,0,0,1,52.29,37.29Z"/><path class="cls-34" d="M53.62,38.69a.39.39,0,0,1-.54,0,.41.41,0,0,1,0-.55.36.36,0,0,1,.54,0A.39.39,0,0,1,53.62,38.69Z"/><path class="cls-34" d="M54.77,40.24a.4.4,0,0,1-.54-.1.4.4,0,0,1,.1-.54.39.39,0,0,1,.44.64Z"/><path class="cls-34" d="M55.7,41.92a.38.38,0,0,1-.51-.17.37.37,0,0,1,.16-.51.4.4,0,0,1,.53.16A.38.38,0,0,1,55.7,41.92Z"/><path class="cls-34" d="M56.41,43.72a.38.38,0,0,1-.48-.24.39.39,0,0,1,.23-.49.36.36,0,0,1,.49.23A.39.39,0,0,1,56.41,43.72Z"/><path class="cls-34" d="M56.89,45.59a.4.4,0,0,1-.46-.3.4.4,0,0,1,.29-.46.39.39,0,0,1,.46.3A.37.37,0,0,1,56.89,45.59Z"/><path class="cls-34" d="M57.12,47.5a.41.41,0,0,1-.41-.35.38.38,0,0,1,.34-.42.39.39,0,0,1,.42.36A.36.36,0,0,1,57.12,47.5Z"/><path class="cls-34" d="M57.1,49.43a.39.39,0,0,1,0-.77.38.38,0,0,1,.38.4A.4.4,0,0,1,57.1,49.43Z"/><path class="cls-34" d="M56.84,51.34a.38.38,0,0,1-.31-.44.4.4,0,0,1,.45-.32.38.38,0,0,1,.31.45A.39.39,0,0,1,56.84,51.34Z"/><path class="cls-34" d="M56.35,53.21a.4.4,0,0,1-.26-.49.38.38,0,0,1,.48-.25.37.37,0,0,1,.25.48A.37.37,0,0,1,56.35,53.21Z"/><path class="cls-34" d="M55.61,55a.39.39,0,0,1-.18-.51.37.37,0,0,1,.49-.2.4.4,0,0,1,.21.52A.38.38,0,0,1,55.61,55Z"/><path class="cls-34" d="M54.64,56.66a.38.38,0,0,1-.11-.53.41.41,0,0,1,.53-.12.37.37,0,0,1,.12.53A.39.39,0,0,1,54.64,56.66Z"/><path class="cls-34" d="M53.48,58.2a.4.4,0,0,1,0-.55.39.39,0,0,1,.54,0,.38.38,0,0,1,.05.54A.38.38,0,0,1,53.48,58.2Z"/><path class="cls-34" d="M52.13,59.57a.39.39,0,1,1,.55,0A.37.37,0,0,1,52.13,59.57Z"/><path class="cls-34" d="M50.61,60.76a.38.38,0,0,1,.09-.53.4.4,0,0,1,.54.09.37.37,0,0,1-.09.53A.38.38,0,0,1,50.61,60.76Z"/><path class="cls-34" d="M49,61.75a.38.38,0,1,1,.52.16A.38.38,0,0,1,49,61.75Z"/><path class="cls-34" d="M47.19,62.52a.38.38,0,0,1,.22-.49.37.37,0,0,1,.49.21.39.39,0,0,1-.21.51A.38.38,0,0,1,47.19,62.52Z"/><path class="cls-34" d="M45.33,63.05a.37.37,0,0,1,.29-.45.39.39,0,0,1,.46.28.36.36,0,0,1-.28.46A.39.39,0,0,1,45.33,63.05Z"/><path class="cls-34" d="M43.43,63.35a.39.39,0,0,1,.34-.43.39.39,0,0,1,.42.34.38.38,0,0,1-.34.43A.37.37,0,0,1,43.43,63.35Z"/><path class="cls-34" d="M41.5,63.41a.4.4,0,0,1,.39-.39.37.37,0,0,1,.38.38.4.4,0,0,1-.39.39A.37.37,0,0,1,41.5,63.41Z"/><polygon class="cls-34" points="26.53 36.2 27.27 36.2 27.27 32.81 30.65 32.81 30.65 32.07 26.53 32.07 26.53 36.2"/><polygon class="cls-34" points="53.53 32.07 53.53 32.81 56.92 32.81 56.92 36.2 57.66 36.2 57.66 32.07 53.53 32.07"/><polygon class="cls-34" points="56.92 63.91 53.53 63.91 53.53 64.65 57.66 64.65 57.66 60.53 56.92 60.53 56.92 63.91"/><polygon class="cls-34" points="27.27 60.53 26.53 60.53 26.53 64.65 30.65 64.65 30.65 63.91 27.27 63.91 27.27 60.53"/><path class="cls-34" d="M32.55,72v2.43h1.29V75h-2V72Z"/><path class="cls-34" d="M37.29,73.52A1.63,1.63,0,1,1,35.66,72,1.56,1.56,0,0,1,37.29,73.52Zm-2.55,0a.93.93,0,1,0,1.85,0,.93.93,0,1,0-1.85,0Z"/><path class="cls-34" d="M39.65,74.44h-1.4L38,75h-.71l1.31-3h.71l1.29,3h-.73Zm-.22-.55L39,72.72l-.48,1.17Z"/><path class="cls-34" d="M43.81,73.52A1.49,1.49,0,0,1,42.2,75H40.94V72h1.28A1.48,1.48,0,0,1,43.81,73.52Zm-.69,0a.9.9,0,0,0-.91-.94h-.59v1.88h.62A.88.88,0,0,0,43.12,73.52Z"/><path class="cls-34" d="M45,72v3h-.68V72Z"/><path class="cls-34" d="M46.24,72,47.71,74V72h.65v3h-.63l-1.46-1.94V75h-.65V72Z"/><path class="cls-34" d="M51.06,73.51h.59v1.16a2.27,2.27,0,0,1-1.23.39,1.54,1.54,0,0,1-1.61-1.54A1.57,1.57,0,0,1,50.46,72a1.92,1.92,0,0,1,1.22.45l-.39.48a1.3,1.3,0,0,0-.83-.33.93.93,0,0,0-1,.94,1,1,0,0,0,1,1,1.4,1.4,0,0,0,.59-.17Z"/><path class="cls-34" d="M52.75,74.72a.33.33,0,0,1-.33.35.33.33,0,0,1-.33-.35.32.32,0,0,1,.33-.34A.32.32,0,0,1,52.75,74.72Z"/><path class="cls-34" d="M53.77,74.72a.33.33,0,0,1-.33.35.34.34,0,0,1-.34-.35.33.33,0,0,1,.34-.34A.32.32,0,0,1,53.77,74.72Z"/><path class="cls-34" d="M54.79,74.72a.34.34,0,1,1-.67,0,.34.34,0,1,1,.67,0Z"/><polygon class="cls-46" points="31.34 81.9 29.39 81.9 30.87 79.19 32.82 79.19 31.34 81.9"/><polygon class="cls-46" points="34.09 81.9 32.14 81.9 33.62 79.19 35.57 79.19 34.09 81.9"/><polygon class="cls-46" points="36.85 81.9 34.9 81.9 36.38 79.19 38.33 79.19 36.85 81.9"/><polygon class="cls-46" points="39.6 81.9 37.65 81.9 39.13 79.19 41.08 79.19 39.6 81.9"/><polygon class="cls-34" points="42.35 81.9 40.4 81.9 41.88 79.19 43.83 79.19 42.35 81.9"/><polygon class="cls-34" points="45.1 81.9 43.16 81.9 44.63 79.19 46.58 79.19 45.1 81.9"/><polygon class="cls-34" points="47.86 81.9 45.91 81.9 47.39 79.19 49.34 79.19 47.86 81.9"/><polygon class="cls-34" points="50.61 81.9 48.66 81.9 50.14 79.19 52.09 79.19 50.61 81.9"/><polygon class="cls-34" points="53.36 81.9 51.41 81.9 52.89 79.19 54.84 79.19 53.36 81.9"/><path class="cls-47" d="M38.4,152.46a.19.19,0,0,1-.19-.2V95.66a.19.19,0,0,1,.19-.2.2.2,0,0,1,.2.2v56.6A.2.2,0,0,1,38.4,152.46Z"/><path class="cls-47" d="M47.63,152.46a.2.2,0,0,1-.2-.2V95.66a.2.2,0,1,1,.4,0v56.6A.2.2,0,0,1,47.63,152.46Z"/><path class="cls-47" d="M56.86,152.46a.2.2,0,0,1-.2-.2V95.66a.2.2,0,0,1,.4,0v56.6A.2.2,0,0,1,56.86,152.46Z"/><path class="cls-47" d="M66.09,152.46a.2.2,0,0,1-.2-.2V95.66a.2.2,0,0,1,.4,0v56.6A.2.2,0,0,1,66.09,152.46Z"/><path class="cls-47" d="M75.32,152.46a.2.2,0,0,1-.2-.2V95.66a.2.2,0,0,1,.4,0v56.6A.2.2,0,0,1,75.32,152.46Z"/><path class="cls-47" d="M84.55,152.46a.2.2,0,0,1-.2-.2V95.66a.2.2,0,1,1,.39,0v56.6A.2.2,0,0,1,84.55,152.46Z"/><path class="cls-47" d="M87.38,101.09H35.57a.2.2,0,0,1,0-.4H87.38a.2.2,0,0,1,0,.4Z"/><path class="cls-47" d="M87.38,110.32H35.57a.2.2,0,1,1,0-.4H87.38a.2.2,0,0,1,0,.4Z"/><path class="cls-47" d="M87.38,119.54H35.57a.19.19,0,0,1-.2-.19.2.2,0,0,1,.2-.2H87.38a.2.2,0,0,1,.2.2A.19.19,0,0,1,87.38,119.54Z"/><path class="cls-47" d="M87.38,128.77H35.57a.2.2,0,1,1,0-.39H87.38a.2.2,0,1,1,0,.39Z"/><path class="cls-47" d="M87.38,138H35.57a.2.2,0,1,1,0-.4H87.38a.2.2,0,0,1,0,.4Z"/><path class="cls-47" d="M87.38,147.23H35.57a.2.2,0,0,1,0-.4H87.38a.2.2,0,1,1,0,.4Z"/><g class="cls-48"><path class="cls-49" d="M47.48,110.36a.75.75,0,0,1-.38-.1.8.8,0,0,1-.31-1.08c2.38-4.3,7.07-9.22,13.09-10.15a14.91,14.91,0,0,1,10.81,2.53.8.8,0,1,1-.93,1.29,13.54,13.54,0,0,0-9.64-2.26c-5.45.85-9.74,5.39-11.94,9.36A.81.81,0,0,1,47.48,110.36Z"/><path class="cls-49" d="M61.45,149.06a17.1,17.1,0,0,1-2.92-.25A18.89,18.89,0,0,1,44.29,137.6c-3-7.18-2.58-16.66,1.09-26a.79.79,0,1,1,1.48.58c-3.53,9-3.93,18-1.1,24.81a17.31,17.31,0,0,0,13,10.26,14.67,14.67,0,0,0,12.51-3.63c5-4.42,8-12.14,7.73-19.67-.63-14.87-7.19-19-7.25-19.06a.8.8,0,0,1,.81-1.37c.3.18,7.36,4.54,8,20.36.33,8-2.91,16.21-8.28,20.93A16.22,16.22,0,0,1,61.45,149.06Z"/><path class="cls-49" d="M50.58,141.21A.79.79,0,0,1,50,141c-5.44-6-4.83-14.77-3.89-20.86C47.46,111.3,53.65,102,62.43,102h0c8.42,0,12.47,8.89,12.64,9.27a.79.79,0,0,1-.41,1,.78.78,0,0,1-1-.4c0-.08-3.81-8.32-11.19-8.32-7.61,0-13.48,8.53-14.76,16.78-.89,5.77-1.49,14.06,3.49,19.55a.79.79,0,0,1,0,1.12A.77.77,0,0,1,50.58,141.21Z"/><path class="cls-49" d="M75.29,135.21a.86.86,0,0,1-.27-.05.79.79,0,0,1-.47-1,28.87,28.87,0,0,0,0-19.76.8.8,0,0,1,1.46-.64,30,30,0,0,1,0,21A.8.8,0,0,1,75.29,135.21Z"/><path class="cls-49" d="M60.84,146.26A12.52,12.52,0,0,1,52,142.7.79.79,0,1,1,53,141.55c3.11,2.9,6.73,3.76,11.4,2.69,6.43-1.47,8.83-7.47,8.86-7.53a.79.79,0,0,1,1-.46.81.81,0,0,1,.46,1,14.77,14.77,0,0,1-10,8.51A18.07,18.07,0,0,1,60.84,146.26Z"/><path class="cls-49" d="M61,143.24A10.32,10.32,0,0,1,56.16,142c-5.42-2.85-8.39-10.05-7.41-17.91a.79.79,0,0,1,1.57.2c-1,8.32,2.56,14.18,6.57,16.3,3.56,1.87,7.6,1.16,11.1-1.94,5.88-5.22,6.76-15.76,4.22-22.94-1-3-3.62-8-9.06-8.22-9.39-.43-12.51,14.09-12.54,14.23a.8.8,0,1,1-1.56-.32c.14-.65,3.44-16,14.17-15.49,4.65.21,8.48,3.59,10.49,9.27,2.71,7.67,1.71,19-4.67,24.65A12.2,12.2,0,0,1,61,143.24Z"/><path class="cls-49" d="M61.25,140.49a.79.79,0,0,1,0-1.58c.43,0,10-.81,9.55-14.38-.17-5.58-1.52-9.5-4-11.63a6.79,6.79,0,0,0-5.14-1.62c-5.11.63-7.6,7.71-8.27,11.79-.48,3-1.48,12.82,5.9,15.44a.8.8,0,1,1-.53,1.5c-8.54-3-7.46-13.93-6.93-17.19.91-5.61,4-12.42,9.63-13.12a8.4,8.4,0,0,1,6.37,2c2.84,2.43,4.37,6.73,4.56,12.79.46,15.16-10.93,16-11,16Z"/><path class="cls-49" d="M61,137.34a.8.8,0,0,1,0-1.59c.27,0,6.63-.47,6.63-9.59,0-4.94-1.11-8.64-3.13-10.4a4,4,0,0,0-3.24-1c-1.39.18-4.84,3.68-5.36,8.75a.79.79,0,0,1-1.58-.16c.57-5.64,4.43-9.86,6.72-10.17a5.67,5.67,0,0,1,4.5,1.42c1.68,1.47,3.68,4.67,3.68,11.6,0,10.67-8.06,11.18-8.14,11.18Z"/><path class="cls-49" d="M58.66,136.71a.72.72,0,0,1-.35-.08c-5.13-2.55-4.25-10.24-4.21-10.56a.8.8,0,0,1,1.58.19c0,.07-.78,6.9,3.33,9a.78.78,0,0,1,.36,1.06A.79.79,0,0,1,58.66,136.71Z"/><path class="cls-49" d="M62.66,134.37A.79.79,0,0,1,62,134a.8.8,0,0,1,.22-1.1c1.63-1.07,2.44-3.72,2.66-5.84.29-2.76-.29-6.73-1.73-8.34a1.71,1.71,0,0,0-1.28-.64c-1.53,0-3.35,4.09-3.79,6.74-.5,3.09.32,6.27,1.39,7a.73.73,0,0,0,.86,0c.92-.47,1.6-2,1.83-4.23a11.47,11.47,0,0,0-.58-5.48c-1.44,1.8-1.27,5.9-.61,7.33a.79.79,0,1,1-1.44.66c-.84-1.82-1.12-6.8.95-9.14a1.4,1.4,0,0,1,1.53-.51c1.29.44,1.66,2.92,1.76,4.37.23,3.13-.34,7.21-2.72,8.42a2.31,2.31,0,0,1-2.52-.18c-1.91-1.4-2.52-5.46-2-8.58.26-1.61,2-8.08,5.35-8.08a3.28,3.28,0,0,1,2.46,1.17c2,2.27,2.39,7.07,2.13,9.56-.16,1.55-.81,5.32-3.36,7A.82.82,0,0,1,62.66,134.37Z"/></g><g class="cls-48"><g class="cls-50"><path class="cls-49" d="M47.48,110.36a.75.75,0,0,1-.38-.1.8.8,0,0,1-.31-1.08c2.38-4.3,7.07-9.22,13.09-10.15a14.91,14.91,0,0,1,10.81,2.53.8.8,0,1,1-.93,1.29,13.54,13.54,0,0,0-9.64-2.26c-5.45.85-9.74,5.39-11.94,9.36A.81.81,0,0,1,47.48,110.36Z"/><path class="cls-49" d="M61.45,149.06a17.1,17.1,0,0,1-2.92-.25A18.89,18.89,0,0,1,44.29,137.6c-3-7.18-2.58-16.66,1.09-26a.79.79,0,1,1,1.48.58c-3.53,9-3.93,18-1.1,24.81a17.31,17.31,0,0,0,13,10.26,14.67,14.67,0,0,0,12.51-3.63c5-4.42,8-12.14,7.73-19.67-.63-14.87-7.19-19-7.25-19.06a.8.8,0,0,1,.81-1.37c.3.18,7.36,4.54,8,20.36.33,8-2.91,16.21-8.28,20.93A16.22,16.22,0,0,1,61.45,149.06Z"/><path class="cls-49" d="M50.58,141.21A.79.79,0,0,1,50,141c-5.44-6-4.83-14.77-3.89-20.86C47.46,111.3,53.65,102,62.43,102h0c8.42,0,12.47,8.89,12.64,9.27a.79.79,0,0,1-.41,1,.78.78,0,0,1-1-.4c0-.08-3.81-8.32-11.19-8.32-7.61,0-13.48,8.53-14.76,16.78-.89,5.77-1.49,14.06,3.49,19.55a.79.79,0,0,1,0,1.12A.77.77,0,0,1,50.58,141.21Z"/><path class="cls-49" d="M75.29,135.21a.86.86,0,0,1-.27-.05.79.79,0,0,1-.47-1,28.87,28.87,0,0,0,0-19.76.8.8,0,0,1,1.46-.64,30,30,0,0,1,0,21A.8.8,0,0,1,75.29,135.21Z"/><path class="cls-49" d="M60.84,146.26A12.52,12.52,0,0,1,52,142.7.79.79,0,1,1,53,141.55c3.11,2.9,6.73,3.76,11.4,2.69,6.43-1.47,8.83-7.47,8.86-7.53a.79.79,0,0,1,1-.46.81.81,0,0,1,.46,1,14.77,14.77,0,0,1-10,8.51A18.07,18.07,0,0,1,60.84,146.26Z"/><path class="cls-49" d="M61,143.24A10.32,10.32,0,0,1,56.16,142c-5.42-2.85-8.39-10.05-7.41-17.91a.79.79,0,0,1,1.57.2c-1,8.32,2.56,14.18,6.57,16.3,3.56,1.87,7.6,1.16,11.1-1.94,5.88-5.22,6.76-15.76,4.22-22.94-1-3-3.62-8-9.06-8.22-9.39-.43-12.51,14.09-12.54,14.23a.8.8,0,1,1-1.56-.32c.14-.65,3.44-16,14.17-15.49,4.65.21,8.48,3.59,10.49,9.27,2.71,7.67,1.71,19-4.67,24.65A12.2,12.2,0,0,1,61,143.24Z"/><path class="cls-49" d="M61.25,140.49a.79.79,0,0,1,0-1.58c.43,0,10-.81,9.55-14.38-.17-5.58-1.52-9.5-4-11.63a6.79,6.79,0,0,0-5.14-1.62c-5.11.63-7.6,7.71-8.27,11.79-.48,3-1.48,12.82,5.9,15.44a.8.8,0,1,1-.53,1.5c-8.54-3-7.46-13.93-6.93-17.19.91-5.61,4-12.42,9.63-13.12a8.4,8.4,0,0,1,6.37,2c2.84,2.43,4.37,6.73,4.56,12.79.46,15.16-10.93,16-11,16Z"/><path class="cls-49" d="M61,137.34a.8.8,0,0,1,0-1.59c.27,0,6.63-.47,6.63-9.59,0-4.94-1.11-8.64-3.13-10.4a4,4,0,0,0-3.24-1c-1.39.18-4.84,3.68-5.36,8.75a.79.79,0,0,1-1.58-.16c.57-5.64,4.43-9.86,6.72-10.17a5.67,5.67,0,0,1,4.5,1.42c1.68,1.47,3.68,4.67,3.68,11.6,0,10.67-8.06,11.18-8.14,11.18Z"/><path class="cls-49" d="M58.66,136.71a.72.72,0,0,1-.35-.08c-5.13-2.55-4.25-10.24-4.21-10.56a.8.8,0,0,1,1.58.19c0,.07-.78,6.9,3.33,9a.78.78,0,0,1,.36,1.06A.79.79,0,0,1,58.66,136.71Z"/><path class="cls-49" d="M62.66,134.37A.79.79,0,0,1,62,134a.8.8,0,0,1,.22-1.1c1.63-1.07,2.44-3.72,2.66-5.84.29-2.76-.29-6.73-1.73-8.34a1.71,1.71,0,0,0-1.28-.64c-1.53,0-3.35,4.09-3.79,6.74-.5,3.09.32,6.27,1.39,7a.73.73,0,0,0,.86,0c.92-.47,1.6-2,1.83-4.23a11.47,11.47,0,0,0-.58-5.48c-1.44,1.8-1.27,5.9-.61,7.33a.79.79,0,1,1-1.44.66c-.84-1.82-1.12-6.8.95-9.14a1.4,1.4,0,0,1,1.53-.51c1.29.44,1.66,2.92,1.76,4.37.23,3.13-.34,7.21-2.72,8.42a2.31,2.31,0,0,1-2.52-.18c-1.91-1.4-2.52-5.46-2-8.58.26-1.61,2-8.08,5.35-8.08a3.28,3.28,0,0,1,2.46,1.17c2,2.27,2.39,7.07,2.13,9.56-.16,1.55-.81,5.32-3.36,7A.82.82,0,0,1,62.66,134.37Z"/></g></g><polygon class="cls-34" points="29.53 99 31.05 99 31.05 92.05 37.99 92.05 37.99 90.54 29.53 90.54 29.53 99"/><polygon class="cls-34" points="84.95 90.54 84.95 92.05 91.9 92.05 91.9 99 93.42 99 93.42 90.54 84.95 90.54"/><polygon class="cls-34" points="91.9 155.87 84.95 155.87 84.95 157.38 93.42 157.38 93.42 148.92 91.9 148.92 91.9 155.87"/><polygon class="cls-34" points="31.05 148.92 29.53 148.92 29.53 157.38 37.99 157.38 37.99 155.87 31.05 155.87 31.05 148.92"/><path class="cls-34" d="M94.75,72.09a2.22,2.22,0,0,1-1.64-.72,36.46,36.46,0,0,1,21-60.48,2.21,2.21,0,1,1,.72,4.37A32,32,0,0,0,96.39,68.39a2.21,2.21,0,0,1-1.64,3.7Z"/><path class="cls-34" d="M120.09,83.31A36.55,36.55,0,0,1,103,79.06a2.22,2.22,0,0,1,2.09-3.91,32,32,0,0,0,36.64-4.69,2.22,2.22,0,1,1,3,3.27A36.34,36.34,0,0,1,120.09,83.31Z"/><path class="cls-34" d="M150.84,64.14a2.29,2.29,0,0,1-1-.22,2.22,2.22,0,0,1-1-3,31.7,31.7,0,0,0,3.26-14.09A32.2,32.2,0,0,0,127,15.6a2.22,2.22,0,0,1,1-4.33,36.67,36.67,0,0,1,28.54,35.59,36.1,36.1,0,0,1-3.71,16A2.21,2.21,0,0,1,150.84,64.14Z"/><path class="cls-47" d="M145.84,54.65a1.55,1.55,0,0,1-1.08-1.83,1.58,1.58,0,0,1,1.76-1.16,1.46,1.46,0,0,1,1.16,1.84A1.49,1.49,0,0,1,145.84,54.65Z"/><path class="cls-47" d="M142.66,61.59a1.53,1.53,0,0,1,1.5-2.67,1.53,1.53,0,1,1-1.5,2.67Z"/><path class="cls-47" d="M137.65,67.36a1.54,1.54,0,0,1,2.2-2.14,1.49,1.49,0,0,1,0,2.18A1.51,1.51,0,0,1,137.65,67.36Z"/><path class="cls-47" d="M131.23,71.49a1.53,1.53,0,0,1,.68-2,1.54,1.54,0,0,1,2,.55,1.5,1.5,0,0,1-.62,2.1A1.52,1.52,0,0,1,131.23,71.49Z"/><path class="cls-47" d="M123.91,73.63a1.53,1.53,0,0,1,3-.6,1.53,1.53,0,1,1-3,.6Z"/><path class="cls-47" d="M116.27,73.63a1.56,1.56,0,0,1,1.65-1.31,1.53,1.53,0,0,1,1.4,1.58,1.53,1.53,0,1,1-3-.27Z"/><path class="cls-47" d="M109,71.49a1.58,1.58,0,0,1,2-.8,1.56,1.56,0,0,1,.9,1.92,1.49,1.49,0,0,1-2,.87A1.45,1.45,0,0,1,109,71.49Z"/><path class="cls-47" d="M102.52,67.36a1.6,1.6,0,0,1,2.11-.22,1.56,1.56,0,0,1,.31,2.1,1.53,1.53,0,0,1-2.42-1.88Z"/><path class="cls-47" d="M97.52,61.59A1.58,1.58,0,0,1,99.6,62a1.56,1.56,0,0,1-.29,2.11,1.53,1.53,0,0,1-1.79-2.49Z"/><path class="cls-47" d="M94.34,54.65a1.6,1.6,0,0,1,1.9,1,1.58,1.58,0,0,1-.89,1.94,1.47,1.47,0,0,1-1.94-.94A1.45,1.45,0,0,1,94.34,54.65Z"/><path class="cls-47" d="M93.24,47.09a1.57,1.57,0,0,1,1.58,1.44,1.62,1.62,0,0,1-1.39,1.62,1.53,1.53,0,0,1-.19-3.06Z"/><path class="cls-47" d="M94.34,39.52a1.54,1.54,0,0,1-.68,3,1.46,1.46,0,0,1-1.16-1.84A1.49,1.49,0,0,1,94.34,39.52Z"/><path class="cls-47" d="M97.52,32.58A1.54,1.54,0,0,1,98,34.63a1.55,1.55,0,0,1-2,.62,1.48,1.48,0,0,1-.6-2.1A1.51,1.51,0,0,1,97.52,32.58Z"/><path class="cls-47" d="M102.52,26.81A1.53,1.53,0,0,1,100.33,29a1.53,1.53,0,1,1,2.19-2.14Z"/><path class="cls-47" d="M109,22.68a1.54,1.54,0,0,1-2.71,1.44,1.5,1.5,0,0,1,.62-2.1A1.52,1.52,0,0,1,109,22.68Z"/><path class="cls-47" d="M116.27,20.54a1.53,1.53,0,0,1-3,.61,1.53,1.53,0,1,1,3-.61Z"/><path class="cls-47" d="M123.91,20.54a1.56,1.56,0,0,1-1.65,1.31,1.52,1.52,0,0,1-1.4-1.57,1.53,1.53,0,1,1,3,.26Z"/><path class="cls-47" d="M131.23,22.68a1.53,1.53,0,0,1-2.85-1.12,1.49,1.49,0,0,1,2-.87A1.45,1.45,0,0,1,131.23,22.68Z"/><path class="cls-47" d="M137.65,26.81a1.58,1.58,0,0,1-2.1.22,1.56,1.56,0,0,1-.31-2.1,1.47,1.47,0,0,1,2.14-.27A1.45,1.45,0,0,1,137.65,26.81Z"/><path class="cls-47" d="M142.66,32.58a1.6,1.6,0,0,1-2.09-.38,1.57,1.57,0,0,1,.3-2.11,1.48,1.48,0,0,1,2.13.35A1.46,1.46,0,0,1,142.66,32.58Z"/><path class="cls-47" d="M145.84,39.52a1.53,1.53,0,0,1-1-2.89,1.48,1.48,0,0,1,2,.94A1.45,1.45,0,0,1,145.84,39.52Z"/><path class="cls-47" d="M146.94,47.09a1.53,1.53,0,0,1-.19-3.06,1.45,1.45,0,0,1,1.61,1.44A1.48,1.48,0,0,1,146.94,47.09Z"/><path class="cls-47" d="M159.67,59.8a1.54,1.54,0,0,1,.85-3,1.54,1.54,0,0,1-.85,3Z"/><path class="cls-47" d="M156.66,66.85a1.53,1.53,0,0,1-.66-2,1.62,1.62,0,0,1,2.05-.71,1.47,1.47,0,0,1,.68,2A1.51,1.51,0,0,1,156.66,66.85Z"/><path class="cls-47" d="M152.4,73.23a1.52,1.52,0,0,1-.26-2.12,1.6,1.6,0,0,1,2.12-.32,1.47,1.47,0,0,1,.31,2.15A1.53,1.53,0,0,1,152.4,73.23Z"/><path class="cls-47" d="M147,78.72a1.51,1.51,0,0,1,.14-2.12,1.56,1.56,0,0,1,2.13.05,1.5,1.5,0,0,1-.08,2.19A1.54,1.54,0,0,1,147,78.72Z"/><path class="cls-47" d="M140.77,83.13a1.49,1.49,0,0,1,.53-2,1.51,1.51,0,0,1,2.07.43,1.54,1.54,0,0,1-.46,2.16A1.57,1.57,0,0,1,140.77,83.13Z"/><path class="cls-47" d="M133.8,86.33a1.54,1.54,0,0,1,2.85-1.13,1.58,1.58,0,0,1-.84,2A1.56,1.56,0,0,1,133.8,86.33Z"/><path class="cls-47" d="M126.35,88.19a1.56,1.56,0,0,1,1.24-1.74,1.5,1.5,0,0,1,1.78,1.15,1.55,1.55,0,0,1-1.22,1.84A1.51,1.51,0,0,1,126.35,88.19Z"/><path class="cls-47" d="M118.7,88.65a1.61,1.61,0,0,1,1.53-1.52,1.52,1.52,0,1,1,0,3A1.44,1.44,0,0,1,118.7,88.65Z"/><path class="cls-47" d="M111.08,87.68a1.6,1.6,0,0,1,1.79-1.22,1.57,1.57,0,0,1,1.24,1.76,1.49,1.49,0,0,1-1.79,1.23A1.48,1.48,0,0,1,111.08,87.68Z"/><path class="cls-47" d="M103.78,85.33a1.56,1.56,0,0,1,2-.86,1.61,1.61,0,0,1,.89,2,1.48,1.48,0,0,1-2,.86A1.51,1.51,0,0,1,103.78,85.33Z"/><path class="cls-47" d="M97,81.67a1.53,1.53,0,0,1,2.08-.46,1.61,1.61,0,0,1,.52,2.09,1.45,1.45,0,0,1-2.11.5A1.51,1.51,0,0,1,97,81.67Z"/><path class="cls-47" d="M91.08,76.84a1.52,1.52,0,0,1,2.13-.06,1.59,1.59,0,0,1,.13,2.14,1.49,1.49,0,0,1-2.18.12A1.55,1.55,0,0,1,91.08,76.84Z"/><path class="cls-47" d="M86.11,71a1.49,1.49,0,0,1,2.09.34A1.54,1.54,0,0,1,88,73.45a1.52,1.52,0,0,1-2.18-.27A1.55,1.55,0,0,1,86.11,71Z"/><path class="cls-47" d="M82.29,64.35a1.54,1.54,0,0,1,1.37,2.75,1.54,1.54,0,1,1-1.37-2.75Z"/><path class="cls-47" d="M79.75,57.12a1.51,1.51,0,0,1,1.83,1.06,1.5,1.5,0,0,1-1,1.88,1.55,1.55,0,0,1-2-1A1.52,1.52,0,0,1,79.75,57.12Z"/><path class="cls-47" d="M78.58,49.53a1.61,1.61,0,0,1,1.64,1.39,1.52,1.52,0,1,1-3,.29A1.48,1.48,0,0,1,78.58,49.53Z"/><path class="cls-47" d="M78.82,41.86a1.61,1.61,0,0,1,1.4,1.67,1.56,1.56,0,0,1-1.63,1.4,1.51,1.51,0,0,1-1.4-1.67A1.46,1.46,0,0,1,78.82,41.86Z"/><path class="cls-47" d="M80.5,34.37a1.58,1.58,0,0,1,1,1.89,1.59,1.59,0,0,1-1.89,1.07,1.48,1.48,0,0,1-1-1.89A1.49,1.49,0,0,1,80.5,34.37Z"/><path class="cls-47" d="M83.52,27.32a1.54,1.54,0,0,1,.66,2,1.61,1.61,0,0,1-2.05.7,1.47,1.47,0,0,1-.68-2A1.51,1.51,0,0,1,83.52,27.32Z"/><path class="cls-47" d="M87.78,20.94A1.52,1.52,0,0,1,88,23.06a1.6,1.6,0,0,1-2.12.33,1.48,1.48,0,0,1-.31-2.16A1.54,1.54,0,0,1,87.78,20.94Z"/><path class="cls-47" d="M93.14,15.45A1.51,1.51,0,0,1,93,17.57a1.55,1.55,0,0,1-2.13-.05,1.51,1.51,0,0,1,.07-2.19A1.56,1.56,0,0,1,93.14,15.45Z"/><path class="cls-47" d="M99.41,11a1.49,1.49,0,0,1-.53,2.05,1.52,1.52,0,1,1-1.61-2.58A1.55,1.55,0,0,1,99.41,11Z"/><path class="cls-47" d="M106.38,7.84a1.5,1.5,0,0,1-.9,1.92,1.48,1.48,0,0,1-2-.79,1.53,1.53,0,1,1,2.85-1.13Z"/><path class="cls-47" d="M113.82,6a1.54,1.54,0,0,1-1.23,1.73,1.5,1.5,0,0,1-1.78-1.15A1.56,1.56,0,0,1,112,4.73,1.5,1.5,0,0,1,113.82,6Z"/><path class="cls-47" d="M121.48,5.52A1.61,1.61,0,0,1,120,7a1.52,1.52,0,1,1,0-3A1.45,1.45,0,0,1,121.48,5.52Z"/><path class="cls-47" d="M129.1,6.49a1.54,1.54,0,0,1-3-.54,1.51,1.51,0,0,1,1.79-1.23A1.48,1.48,0,0,1,129.1,6.49Z"/><path class="cls-47" d="M136.4,8.84a1.55,1.55,0,0,1-2,.86,1.61,1.61,0,0,1-.89-2,1.46,1.46,0,0,1,2-.85A1.5,1.5,0,0,1,136.4,8.84Z"/><path class="cls-47" d="M143.14,12.5a1.52,1.52,0,0,1-2.08.46,1.61,1.61,0,0,1-.52-2.09,1.46,1.46,0,0,1,2.11-.5A1.53,1.53,0,0,1,143.14,12.5Z"/><path class="cls-47" d="M149.1,17.33a1.52,1.52,0,0,1-2.13.06,1.58,1.58,0,0,1-.14-2.13,1.49,1.49,0,0,1,2.19-.12A1.54,1.54,0,0,1,149.1,17.33Z"/><path class="cls-47" d="M154.07,23.17a1.49,1.49,0,0,1-2.09-.34,1.54,1.54,0,0,1,.24-2.11,1.52,1.52,0,0,1,2.18.27A1.55,1.55,0,0,1,154.07,23.17Z"/><path class="cls-47" d="M157.89,29.82a1.54,1.54,0,0,1-1.38-2.74,1.54,1.54,0,1,1,1.38,2.74Z"/><path class="cls-47" d="M160.43,37.06A1.52,1.52,0,0,1,158.6,36a1.5,1.5,0,0,1,1-1.88,1.55,1.55,0,0,1,2,1A1.53,1.53,0,0,1,160.43,37.06Z"/><path class="cls-47" d="M161.59,44.64A1.59,1.59,0,0,1,160,43.25a1.53,1.53,0,0,1,1.32-1.67A1.55,1.55,0,0,1,163,43,1.48,1.48,0,0,1,161.59,44.64Z"/><path class="cls-47" d="M161.36,52.31a1.61,1.61,0,0,1-1.4-1.67,1.54,1.54,0,0,1,1.63-1.39,1.51,1.51,0,0,1,1.4,1.67A1.46,1.46,0,0,1,161.36,52.31Z"/><path d="M127.51,39.31h2.88v-.76h0a10.22,10.22,0,0,0-10.22-9.62H120a10.24,10.24,0,0,0-10.23,9.62h0V50.44h2.85v-11h0C112.88,35.55,116.1,32,120,32h.1C124.05,32,127.23,35.48,127.51,39.31Z"/><path class="cls-51" d="M127.42,65.25H112.76a5.3,5.3,0,0,1-5.3-5.31V45.15a1.4,1.4,0,0,1,1.4-1.41h22.46a1.41,1.41,0,0,1,1.4,1.41V59.94A5.3,5.3,0,0,1,127.42,65.25Z"/><path class="cls-52" d="M130.69,44.35h-.14V57.08c0,2.76-2,5-4.39,5H114c-2.43,0-4.39-2.24-4.39-5V44.35h-.14a1.33,1.33,0,0,0-1.33,1.32v14a5,5,0,0,0,5,5H127a5,5,0,0,0,5-5v-14A1.33,1.33,0,0,0,130.69,44.35Z"/><path d="M122.87,52a2.78,2.78,0,1,0-3.79,2.61l-.62,3.23a1.65,1.65,0,0,0,1.61,2h0a1.64,1.64,0,0,0,1.6-2l-.61-3.23A2.81,2.81,0,0,0,122.87,52Z"/><path class="cls-29" d="M111.52,122.57c5,4.29,6,10.44,5.74,12.69-.15,1.3-1.28,7.57-2.2,12.64,3.13,1.45,13.93,4.87,21.77,3.27.33-6.49,2.13-16.51,3.48-19.71,2.25-5.32,3.23-8.15,4.89-12.21s4.48-15.25,5.3-18.65,1.74-10.31,1-11.71c-1.17-2.34-4.7-2-5.28-1.47,0,0,2.63-5.38-6.71-5.51,0,0,1.46-5.35-8.21-5.77,0,0-.07-4.65-.23-8.87-.17-4.7,0-9.33-1.29-10.22-2-1.42-5.12-1.42-6.11,1.46-.66,1.91-.22,7.19-.34,11-.33,9.86-.5,16.87-1.12,22.54s-1.61,16.6-5,16c-5.42-.91-6.13-5.48-9.57-8.55S98.38,94,96.38,96.12s6.13,9.27,7.3,11S106.53,118.29,111.52,122.57Z"/><path class="cls-30" d="M119,128c-3.27-5.73-2.9-4.54-8.6-9.62-.94-.84-5.17-9-6.07-9.75,1.18,3.31,3,10.39,7.17,13.94,5,4.29,6,10.44,5.74,12.69-.15,1.3-1.28,7.57-2.2,12.64,3.13,1.45,13.93,4.87,21.77,3.27a102,102,0,0,1,2.22-15.37C131.4,138,123.78,136.36,119,128Z"/><path class="cls-53" d="M102.57,100.63C101,99,97.78,98.41,96.38,98.22c1.13,2.57,5,6.27,6.66,8.12C103.67,104.74,104,102.09,102.57,100.63Z"/><path class="cls-53" d="M125.91,63.9c.93.23,2.46.48,3-.54a12.71,12.71,0,0,0,1.12-6,1.48,1.48,0,0,0-.25-.3c-1.61-1.12-3.85-1.33-5.22,0C124.36,59,124.14,63.47,125.91,63.9Z"/><path class="cls-30" d="M132.5,76.22S131.31,92.35,131,92.31s.27-17.18.27-17.18Z"/><path class="cls-30" d="M140.47,81.94S138.79,94,138.41,93.75s1.14-13.57,1.14-13.57Z"/><path class="cls-30" d="M147.12,87.21s-2.31,9.5-2.36,9.18,1.83-10.59,1.83-10.59A4.79,4.79,0,0,1,147.12,87.21Z"/><path class="cls-54" d="M131.08,93.37s-1,5.36-.61,6.55C130.47,99.92,132.73,94.64,131.08,93.37Z"/><path class="cls-54" d="M138,94.84s-1,5.14-.63,6.29C137.38,101.13,139.65,96.06,138,94.84Z"/><path class="cls-54" d="M144.28,96.54s-.84,4.28-.5,5.23C143.78,101.77,145.63,97.56,144.28,96.54Z"/><rect class="cls-55" x="109" y="139.08" width="31.79" height="29.22" transform="translate(-47.53 251.12) rotate(-80.37)"/><polygon class="cls-47" points="167.82 81.62 165.52 81.62 165.52 79.32 163.92 79.32 163.92 81.62 161.62 81.62 161.62 83.22 163.92 83.22 163.92 85.52 165.52 85.52 165.52 83.22 167.82 83.22 167.82 81.62"/><polygon class="cls-47" points="80.27 83.09 77.97 83.09 77.97 80.79 76.37 80.79 76.37 83.09 74.07 83.09 74.07 84.68 76.37 84.68 76.37 86.98 77.97 86.98 77.97 84.68 80.27 84.68 80.27 83.09"/><polygon class="cls-47" points="6.2 88.58 3.9 88.58 3.9 86.28 2.3 86.28 2.3 88.58 0 88.58 0 90.18 2.3 90.18 2.3 92.48 3.9 92.48 3.9 90.18 6.2 90.18 6.2 88.58"/><polygon class="cls-47" points="9.3 19.98 7 19.98 7 17.68 5.4 17.68 5.4 19.98 3.1 19.98 3.1 21.58 5.4 21.58 5.4 23.88 7 23.88 7 21.58 9.3 21.58 9.3 19.98"/><polygon class="cls-47" points="161.18 117.46 158.21 117.46 158.21 114.5 156.15 114.5 156.15 117.46 153.19 117.46 153.19 119.52 156.15 119.52 156.15 122.49 158.21 122.49 158.21 119.52 161.18 119.52 161.18 117.46"/><polygon class="cls-47" points="24.4 119.47 21.43 119.47 21.43 116.5 19.37 116.5 19.37 119.47 16.41 119.47 16.41 121.53 19.37 121.53 19.37 124.49 21.43 124.49 21.43 121.53 24.4 121.53 24.4 119.47"/><polygon class="cls-47" points="78.5 2.97 75.53 2.97 75.53 0 73.47 0 73.47 2.97 70.5 2.97 70.5 5.03 73.47 5.03 73.47 7.99 75.53 7.99 75.53 5.03 78.5 5.03 78.5 2.97"/><polygon class="cls-47" points="104.71 134.18 101.74 134.18 101.74 131.21 99.68 131.21 99.68 134.18 96.72 134.18 96.72 136.24 99.68 136.24 99.68 139.21 101.74 139.21 101.74 136.24 104.71 136.24 104.71 134.18"/></g></g></g></svg>